<?xml version="1.0" encoding="UTF-8"?>
<svg width="24px" height="24px" viewBox="0 0 24 24" version="1.1" xmlns="http://www.w3.org/2000/svg">
    <g transform="translate(2.000000, 2.000000)" fill="#1877F2" fill-rule="evenodd">
        <path d="M20,10 C20,4.4775 15.5225,0 10,0 C4.4775,0 0,4.4775 0,10 C0,14.9925 3.6575,19.1275 8.4375,19.8875 L8.4375,12.8875 L5.8975,12.8875 L5.8975,10 L8.4375,10 L8.4375,7.7975 C8.4375,5.29 9.93,3.905 12.215,3.905 C13.31,3.905 14.455,4.1 14.455,4.1 L14.455,6.5 L13.19,6.5 C11.95,6.5 11.5625,7.2675 11.5625,8.0575 L11.5625,10 L14.335,10 L13.895,12.8875 L11.5625,12.8875 L11.5625,19.8875 C16.3425,19.1275 20,14.9925 20,10 Z"/>
        <path d="M13.895,12.8875 L14.335,10 L11.5625,10 L11.5625,8.0575 C11.5625,7.2675 11.95,6.5 13.19,6.5 L14.455,6.5 L14.455,4.1 C14.455,4.1 13.31,3.905 12.215,3.905 C9.93,3.905 8.4375,5.29 8.4375,7.7975 L8.4375,10 L5.8975,10 L5.8975,12.8875 L8.4375,12.8875 L8.4375,19.8875 C8.935,19.965 9.46,20 10,20 C10.54,20 11.065,19.965 11.5625,19.8875 L11.5625,12.8875 L13.895,12.8875 Z" fill="#FFFFFF"/>
    </g>
</svg>