<?xml version="1.0" encoding="UTF-8"?>
<svg width="24px" height="24px" viewBox="0 0 24 24" version="1.1" xmlns="http://www.w3.org/2000/svg">
    <g transform="translate(2.000000, 2.000000)" fill="none" fill-rule="evenodd">
        <path d="M19.6,10.227 C19.6,9.517 19.536,8.837 19.414,8.182 L10,8.182 L10,12.0455 L15.319,12.0455 C15.1195,13.3 14.38,14.361 13.2335,15.0685 L13.2335,17.5775 L16.4055,17.5775 C18.2555,15.836 19.6,13.273 19.6,10.227 L19.6,10.227 Z" fill="#4285F4"></path>
        <path d="M10,20 C12.7,20 14.96,19.104 16.4045,17.5775 L13.2335,15.0685 C12.3525,15.6685 11.255,16.0005 10,16.0005 C7.398,16.0005 5.193,14.261 4.404,11.9005 L1.13,11.9005 L1.13,14.4905 C2.569,17.753 6.0045,20 10,20 L10,20 Z" fill="#34A853"></path>
        <path d="M4.40405,11.9005 C4.20805,11.3005 4.09995,10.659 4.09995,10 C4.09995,9.341 4.20805,8.7 4.40405,8.1 L4.40405,5.509 L1.13095,5.509 C0.410955,6.841 5.00679114e-14,8.366 5.00679114e-14,10 C5.00679114e-14,11.634 0.410955,13.1595 1.13095,14.4905 L4.40405,11.9005 L4.40405,11.9005 Z" fill="#FBBC05"></path>
        <path d="M10,3.99955 C11.468,3.99955 12.786,4.49155 13.823,5.47355 L16.62,2.60255 C14.955,0.991553 12.696,-6.07467599e-13 10,-6.07467599e-13 C6.0045,-6.07467599e-13 2.569,2.24655 1.13,5.50955 L4.4035,8.09955 C5.193,5.73855 7.398,3.99955 10,3.99955 L10,3.99955 Z" fill="#EA4335"></path>
    </g>
</svg>