<?xml version="1.0" encoding="UTF-8"?>
<svg width="24px" height="24px" viewBox="0 0 24 24" version="1.1" xmlns="http://www.w3.org/2000/svg">
    <g transform="translate(2.000000, 2.000000)" fill="#0A66C2" fill-rule="evenodd">
        <path d="M18.335,18.339 L15.183,18.339 L15.183,13.289 C15.183,11.976 15.156,10.311 13.381,10.311 C11.58,10.311 11.302,11.72 11.302,13.178 L11.302,18.339 L8.151,18.339 L8.151,8.068 L11.165,8.068 L11.165,9.443 L11.209,9.443 C11.636,8.65 12.68,7.815 14.224,7.815 C17.426,7.815 18.335,10.059 18.335,12.999 L18.335,18.339 Z M4.794,6.693 C3.768,6.693 2.935,5.859 2.935,4.835 C2.935,3.812 3.768,2.977 4.794,2.977 C5.819,2.977 6.654,3.812 6.654,4.835 C6.654,5.859 5.819,6.693 4.794,6.693 Z M6.369,18.339 L3.216,18.339 L3.216,8.068 L6.369,8.068 L6.369,18.339 Z M19.83,0 L1.17,0 C0.523,0 0,0.512 0,1.144 L0,19.856 C0,20.487 0.523,21 1.17,21 L19.83,21 C20.477,21 21,20.487 21,19.856 L21,1.144 C21,0.512 20.477,0 19.83,0 Z"/>
    </g>
</svg>